<svg width="472" height="135" viewBox="0 0 472 135" xmlns="http://www.w3.org/2000/svg"><title>Artboard</title><g fill="none" fill-rule="evenodd"><g fill="#8EC83E"><path d="M47.2853 83.6028c-7.8278-1.5785-10.5627-7.5824-8.0414-19.012.348-1.7397-.5197-2.8426-.7447-3.0952-.321-.331-.652-.663-1.0026-.9942-1.1466-1.1162-2.4202-2.21-3.791-3.2902-.6974-.5232-1.3913-1.0714-2.1406-1.566-.7314-.5234-1.5012-1.0006-2.282-1.4815-.7763-.4894-1.598-.9086-2.4063-1.367-.837-.3962-1.6556-.849-2.5168-1.205-.3755-.1605-.75-.3233-1.1264-.4814-.1132-.0292-1.8835-.4672-2.2167.634C19.7047 56.683 19 61.874 19 67.2327c0 4.61.5266 9.094 1.5067 13.4023.1408.4903.7744.6406.7744.6406.1646.0284.332.0573.499.0917.9113.1582 1.8427.311 2.759.5558.4632.107.9265.2193 1.3948.3316.458.1378.9214.2754 1.3796.413.9314.255 1.8377.5967 2.7492.928.9162.3162 1.7923.7344 2.6936 1.1015.866.4234 1.7522.816 2.593 1.275.8407.4537 1.6816.9076 2.477 1.4125.816.4742 1.5812.9994 2.3464 1.5093 1.5006 1.0452 2.9203 2.1213 4.1942 3.2227.7705.6475 1.4904 1.4207 2.17 2.0682 2.5494 2.3096 2.3463-1.0216 2.3463-1.0216-.0803-2.0146-.1006-3.9704.0102-5.8672.0374-.586.0705-1.2156.103-1.8043.077-1.355-1.0542-1.753-1.5084-1.858-.052-.01-.151-.0205-.2025-.0307zM114.2314 104.6293c-11.457 4.6617-19.905-2.179-22.3784-4.56-.8286-.8982-2.0976-1.047-2.6174-1.0693-.0847.0073-.1686.0126-.2536.0205-3.2553.3047-6.6776 1.0438-9.8267 2.377-3.1592 1.3185-5.995 3.2413-8.214 5.4584-2.2343 2.2122-3.8672 4.6643-5.0297 6.8765-1.1677 2.2173-1.8855 4.195-2.3506 5.583-.2273.6993-.3942 1.2536-.5055 1.6283-.0202.0747-.0403.1448-.0555.2046.6672.9938 1.3243 1.8976 1.9258 2.7218.5347.704 1.027 1.3367 1.486 1.9075 3.8945.8 7.929 1.2223 12.064 1.2223 18.777 0 35.5027-8.6715 46.3028-22.1803.064-.0892.715-1.038-.569-.9084-4.8065 1.1686-9.9782.718-9.9782.718zM130.6164 62.7126c-.6157-.136-1.2312-.2718-1.8366-.4027-.6105-.141-1.201-.3324-1.796-.4935-.5953-.166-1.1908-.332-1.7757-.4982-.5748-.2015-1.15-.3978-1.7146-.594-.57-.1963-1.1295-.3926-1.689-.584-.5445-.2265-1.0838-.453-1.618-.6746-.5344-.2213-1.0635-.443-1.5823-.6592-.519-.2266-1.0124-.4885-1.5112-.725-2.0045-.9212-3.7903-1.9983-5.4694-2.9448-.804-.5286-1.5772-1.0268-2.31-1.505-.3662-.2417-.7224-.4782-1.0734-.7047-.3358-.2367-.6563-.4833-.972-.7148-.488-.3625-.9513-.7098-1.3887-1.032-1.0634-.6342-1.1042.6092-1.1042.6092.0104.0955.0204.1963.0307.292.1272 1.4647.2137 2.9245.3206 4.3592.0456 1.4395.0915 2.864.1323 4.2636.0152 1.3993-.0203 2.7735-.0306 4.1176 0 .6694-.0358 1.3338-.0713 1.9882-.0356.6594-.0712 1.3038-.1068 1.943-.0407.6394-.051 1.2687-.112 1.8878-.061.619-.117 1.2282-.173 1.822-.056.599-.112 1.1882-.168 1.767-.0508.574-.1067 1.1427-.1932 1.6914-.1445 1.0284-.2725 2.0117-.4038 2.9528 1.6538 2.2455 2.958 4.0495 3.7765 5.234 5.9963 8.6746 19.6874 7.393 19.6874 7.393 3.352-.1436 4.5224.1943 4.9176.499C135.9832 84.4237 138 75.9638 138 67.037c0-.5327-.0078-1.0633-.0225-1.5922-.0267-1.5-1.9983-1.8434-1.9983-1.8434-1.8078-.219-3.606-.4966-5.3628-.8888z"/><path d="M52.8036 84.0194c-.0195.0258-1.5332-.0667-1.8032 1.2365 0 .0564-.0008.1125 0 .169.01.6115.0202 1.2228.03 1.8395.0402 2.4664.3065 4.9587.6378 7.4252.412 2.4614.884 4.9072 1.562 7.2543.6176 2.363 1.4313 4.6273 2.2548 6.793.8738 2.1454 1.7678 4.1973 2.742 6.073.1306.2642.2612.5285.397.7824.698.917 1.3658 0 1.3658 0 .5123-1.1037 1.145-2.3525 1.9336-3.6737 1.4512-2.4354 3.445-5.1246 6.0767-7.477 1.3056-1.1764 2.7672-2.2592 4.339-3.192 1.567-.938 3.2443-1.7202 4.9668-2.3317 1.961-.701 3.9737-1.1736 5.961-1.466 3.021-1.2588 1.3824-3.2358.377-4.144-12.1935-9.9463-16.2588-9.3252-30.8402-9.2886zM34.7927 31.0638c-.6623-.6098-2.386-1.8867-3.8285-.295-3.802 5.0735-6.8315 10.7926-8.9052 16.973-.344 1.0264.9288 1.7604.9288 1.7604.5835.2047 1.166.429 1.7507.6488.897.3258 1.7548.7506 2.6323 1.1213.8483.4327 1.7142.829 2.5336 1.2975.8243.4603 1.6424.9195 2.4195 1.427.7952.479 1.5413 1.0136 2.2857 1.5256 1.3618.9835 2.6495 1.9874 3.8202 3.0162 1.487 1.2463 2.2338-.4195 2.264-.4886 4.6565-16.0385-4.5303-25.662-5.9013-26.9862zM103.9624 67.6453c-.005-.653-.0103-1.3213-.0562-1.9896-.0764-1.3415-.1273-2.7086-.2295-4.0962-.1325-1.3875-.265-2.7954-.4027-4.2238-.1938-1.418-.3723-2.8516-.5864-4.2953-.2652-1.4334-.4793-2.887-.78-4.3308-.1532-.7193-.3113-1.4386-.4642-2.163l-.2345-1.0815-.2703-1.071c-.3673-1.4334-.714-2.867-1.1526-4.2698-.214-.704-.4076-1.408-.627-2.1017-.2345-.6937-.464-1.3824-.6934-2.071-.4386-1.3825-.9892-2.7088-1.4687-4.0402-.255-.6633-.5404-1.311-.8005-1.959-.2703-.6428-.52-1.2905-.816-1.913-.5353-1.1884-1.0553-2.3515-1.6162-3.4687-.041-.0866-.0665-.1378-.097-.194-.1733-.2957-.52-.7446-.673.1584-.0153.0917-.0255.153-.0358.2192-.204 1.3264-.5047 2.7088-.877 4.1218-.3823 1.408-.8515 2.8414-1.4174 4.2595-.2806.7142-.6067 1.413-.9178 2.117-.357.6836-.668 1.3927-1.0657 2.061-.3773.6733-.7547 1.3467-1.188 1.9844-.209.3262-.408.6527-.6273.964-.2243.311-.4437.6172-.668.9284-.4282.6224-.9177 1.1935-1.387 1.7702-.4538.5864-.9738 1.1018-1.4533 1.6373-.474.5406-1.0045 1.01-1.494 1.4946-.0768.0777-.1558.1515-.2342.2263-.429.476-1.1908 1.6735.043 3.2935 7.4868 9.822 15.5465 20.556 20.9803 27.9552.878 1.1934 1.1255-.4627 1.1255-.4627.0076-.0977.0143-.1933.0217-.2928.051-.561.0713-1.1325.0866-1.7142.0154-.5814.0307-1.1732.051-1.7752.0153-.6018.0357-1.214.0562-1.8363.0204-.6223-.0103-1.255-.0103-1.8977-.005-.6377-.0153-1.2854-.0203-1.9435z"/><path d="M87.8527 14.5268c-.5898-.9328-1.2056-1.7834-1.7696-2.6084-.595-.8046-1.1382-1.5835-1.6918-2.2804-.3896-.5163-.7644-.9897-1.1297-1.4428-1.61-.1278-3.237-.1952-4.88-.1952-6.3007 0-12.3732.962-18.0827 2.7368-.9312.3292-5.965 2.3397-3.7338 6.6328 1.7356 2.9338 3.8448 6.0854 6.2223 8.811 2.462 2.8225 8.4062 10.3543 15.2402 19.1868.99 1.2783 2.2146.2484 2.378.1012.0805-.0877.1614-.175.2395-.266.4502-.5125.9365-1.0043 1.3607-1.563.4348-.5535.9056-1.0916 1.304-1.691.414-.5895.8485-1.1736 1.2263-1.809.1915-.3075.3882-.62.5795-.9327.1863-.3178.357-.6458.538-.9688.3728-.6406.6884-1.3117 1.004-1.978.3363-.661.5847-1.363.8744-2.0345.2534-.6918.5122-1.3786.7295-2.0702.4397-1.3837.7865-2.7674 1.0453-4.1152.2586-1.353.4448-2.67.5483-3.9254.114-1.2556.145-2.4445.145-3.536-.005-1.0302-.0517-1.973-.119-2.8186-.6726-1.1377-1.3505-2.219-2.0283-3.2336zM91 9c.477.8153.9817 1.6505 1.467 2.5507 1.1307 2.011 2.2415 4.2465 3.3522 6.63.191.434.3868.8677.578 1.3068.236.204.5476.4696.9146.786.4674.4287 1.0905.8728 1.784 1.4138.6837.5564 1.5228 1.0718 2.4123 1.6895.4524.301.945.5717 1.4426.8727.2512.148.5026.306.764.449.2662.138.5376.2808.809.4238.5528.2807 1.1105.587 1.7086.832.598.255 1.196.5562 1.8345.7758.6332.2245 1.2664.5002 1.9347.684.6684.199 1.337.4236 2.0305.5766.3466.087.6935.1686 1.04.2553.352.0765.7038.1326 1.0606.199.7035.148 1.422.2347 2.141.3266.7185.1073 1.4472.1226 2.166.1888.7237.0153 1.4473.0512 2.161.036.6174-.0068 1.229-.0326 1.835-.072.8422-.288.553-.867.328-1.166C114.5744 18.3922 103.5236 11.6662 91 9zM125.9656 31.2127c-.5796-.7384-1.3863-.878-1.9763-.8592-.2543.041-.5095.0804-.767.1167-.686.0964-1.3786.1754-2.08.2338-.7582.071-1.532.0965-2.311.132-.7736-.01-1.5576.0306-2.3365-.0252-.7843-.0408-1.5683-.0763-2.342-.1728-.387-.0407-.7788-.0763-1.1606-.127-.387-.0608-.7687-.1218-1.1504-.1828-.7686-.1066-1.5114-.2896-2.2543-.452-.748-.1422-1.4596-.376-2.1768-.5688-.717-.1828-1.3925-.452-2.0683-.6757-.6758-.2183-1.3156-.4926-1.9396-.7516-.3147-.1268-.624-.2588-.9285-.3808-.2992-.137-.588-.2844-.877-.4164-.5674-.2845-1.1347-.5384-1.6557-.8177-.0723-.0406-.1445-.0812-.2166-.122-.9285-.4723-.7223.3607-.6654.5435.1856.508.3403.9855.5105 1.468.2322.6906.485 1.3762.707 2.0772.4228 1.4068.9078 2.8137 1.274 4.2663.1908.7212.387 1.4476.583 2.1738.1856.7314.3454 1.468.5157 2.2043.361 1.468.6345 2.961.9182 4.4493l.2114 1.1173.103.6856c.2734.249 1.1196 1.021 2.4142 2.2094.196.183.4076.3708.6293.574.232.188.4746.386.7273.589.5054.4116 1.0522.8585 1.635 1.3308.294.2336.5933.4876.9133.7315.325.2334.66.472 1.0007.7158.691.4927 1.4133 1.0058 2.1717 1.544 1.573.9804 3.255 2.0977 5.1582 3.0677.4693.249.939.523 1.4288.762.4952.2335.9956.4673 1.5063.701.5054.2385 1.0213.4772 1.537.721.5367.2083 1.073.4217 1.6148.635.5416.2133 1.0884.4316 1.6403.65.5676.183 1.135.3707 1.7023.5588.5778.1778 1.1452.391 1.733.5484.5883.1575 1.1763.315 1.7746.4724 1.5797.426 3.2036.755 4.846 1.033 1.8157.3023 1.684-1.933 1.682-1.9668-1.3516-10.7577-5.6325-20.6194-12.0316-28.7925zM56.0894 119.0675c-.4412-.952-.9284-1.9084-1.3542-2.9363-.908-2.0306-1.7183-4.228-2.4878-6.522-.482-1.534-.949-3.1012-1.344-4.7165-.323-.5014-.9333-1.4115-1.2975-1.9635-.872-1.3318-2.2212-3.2046-4.0576-5.2908-.9233-1.0382-1.9544-2.1417-3.1187-3.2354-1.149-1.109-2.4416-2.1975-3.8163-3.276-.7028-.5216-1.4056-1.0684-2.1595-1.5648-.7336-.5213-1.5134-.9973-2.298-1.4784-.785-.4912-1.6107-.9115-2.4264-1.3723-.8463-.395-1.672-.8506-2.539-1.2102-.867-.3697-1.7288-.7544-2.616-1.0583-.4412-.157-.8824-.319-1.3234-.481-.4463-.1318-.8925-.2684-1.3388-.4053-.6378-.2072-1.2832-.3723-1.9253-.528-.1026-.02-1.148-.201-.9657.6753 5.0182 17.2602 17.7838 31.2626 34.35 38.1364 2.0824.6946 1.574-1.103 1.574-1.103-.2813-.6003-.561-1.0973-.856-1.67z"/></g><path d="M179.054 45.843c1.0893 1.3047 1.634 3.2743 1.634 5.909v8.778c0 .836-.2597 1.4947-.779 1.976-.5193.4813-1.2223.722-2.109.722s-1.5833-.2407-2.09-.722c-.5067-.4813-.76-1.14-.76-1.976v-8.512c0-1.2667-.2343-2.1913-.703-2.774-.4687-.5827-1.197-.874-2.185-.874-1.1907 0-2.147.38-2.869 1.14-.722.76-1.083 1.7733-1.083 3.04v7.98c0 .836-.2533 1.4947-.76 1.976-.5067.4813-1.2033.722-2.09.722-.8867 0-1.5897-.2407-2.109-.722-.5193-.4813-.779-1.14-.779-1.976V46.584c0-.7853.2723-1.4187.817-1.9.5447-.4813 1.2477-.722 2.109-.722.7853 0 1.425.2343 1.919.703.494.4687.741 1.0703.741 1.805v.532c.6587-1.0133 1.5137-1.786 2.565-2.318s2.2357-.798 3.553-.798c2.2293 0 3.8887.6523 4.978 1.957zM199.46 45.881c1.3173 1.33 1.976 3.363 1.976 6.099v8.588c0 .836-.2407 1.4883-.722 1.957-.4813.4687-1.1527.703-2.014.703-.8107 0-1.463-.247-1.957-.741s-.741-1.1337-.741-1.919v-.266c-.38.9373-1.0133 1.672-1.9 2.204-.8867.532-1.9253.798-3.116.798-1.2667 0-2.413-.2533-3.439-.76-1.026-.5067-1.8367-1.216-2.432-2.128-.5953-.912-.893-1.9253-.893-3.04 0-1.368.3483-2.4447 1.045-3.23.6967-.7853 1.8177-1.3553 3.363-1.71s3.6607-.532 6.346-.532h.988v-.684c0-1.064-.2343-1.8367-.703-2.318-.4687-.4813-1.2477-.722-2.337-.722-1.0893 0-2.66.38-4.712 1.14-.5827.2787-1.0767.418-1.482.418-.5573 0-1.0007-.1963-1.33-.589-.3293-.3927-.494-.9057-.494-1.539 0-.5067.114-.9247.342-1.254.228-.3293.5953-.6333 1.102-.912.8867-.4813 1.9697-.8613 3.249-1.14 1.2793-.2787 2.5397-.418 3.781-.418 2.736 0 4.7627.665 6.08 1.995zm-4.522 12.35c.684-.7473 1.026-1.7163 1.026-2.907v-.646h-.646c-2.052 0-3.4897.1647-4.313.494-.8233.3293-1.235.9247-1.235 1.786 0 .7093.2343 1.2857.703 1.729.4687.4433 1.0577.665 1.767.665 1.1147 0 2.014-.3737 2.698-1.121zM217.776 59.618c.3547.3293.532.8107.532 1.444 0 .7347-.2913 1.292-.874 1.672-.5827.38-1.4187.532-2.508.456l-1.064-.076c-4.4334-.3547-6.65-2.6726-6.65-6.954v-7.524h-1.52c-.836 0-1.4693-.1837-1.9-.551-.4307-.3673-.646-.893-.646-1.577 0-.7093.2153-1.2477.646-1.615.4307-.3673 1.064-.551 1.9-.551h1.52v-2.964c0-.836.2597-1.4947.779-1.976.5193-.4813 1.2223-.722 2.109-.722s1.5833.2407 2.09.722c.5067.4813.76 1.14.76 1.976v2.964h2.66c1.7227 0 2.584.722 2.584 2.166 0 .684-.2153 1.2097-.646 1.577-.4307.3673-1.0767.551-1.938.551h-2.66v7.942c0 .76.1773 1.3363.532 1.729.3547.3927.874.6143 1.558.665l1.064.076c.76.0507 1.3173.2407 1.672.57zM237.631 44.684c.5193.4813.779 1.14.779 1.976v13.946c0 .7853-.2723 1.4187-.817 1.9-.5447.4813-1.2477.722-2.109.722-.8107 0-1.4567-.228-1.938-.684-.4813-.456-.722-1.064-.722-1.824v-.38c-.5827.9627-1.349 1.6973-2.299 2.204-.95.5067-2.0203.76-3.211.76-2.356 0-4.1103-.6523-5.263-1.957-1.1527-1.3047-1.729-3.2743-1.729-5.909V46.66c0-.836.2597-1.4947.779-1.976.5193-.4813 1.2223-.722 2.109-.722s1.5833.2407 2.09.722c.5067.4813.76 1.14.76 1.976v8.892c0 1.1147.2343 1.938.703 2.47.4687.532 1.1843.798 2.147.798 1.1147 0 2.0203-.38 2.717-1.14.6967-.76 1.045-1.7607 1.045-3.002V46.66c0-.836.2533-1.4947.76-1.976.5067-.4813 1.2033-.722 2.09-.722.8867 0 1.5897.2407 2.109.722zM255.757 44.475c.4433.3927.665.9817.665 1.767 0 .836-.2027 1.4567-.608 1.862s-1.1273.6587-2.166.76l-1.14.114c-1.3933.152-2.4003.608-3.021 1.368-.6207.76-.931 1.7353-.931 2.926v7.258c0 .8867-.2723 1.558-.817 2.014-.5447.456-1.2223.684-2.033.684-.836 0-1.5263-.228-2.071-.684-.5447-.456-.817-1.1273-.817-2.014V46.584c0-.836.2787-1.482.836-1.938.5573-.456 1.2287-.684 2.014-.684.76 0 1.3933.2217 1.9.665.5067.4433.76 1.0577.76 1.843v1.026c.456-1.0893 1.1463-1.9253 2.071-2.508.9247-.5827 1.9317-.912 3.021-.988l.532-.038c.76-.0507 1.3617.1203 1.805.513zM273.883 58.06c.3167.4053.475.9247.475 1.558 0 .4307-.1267.8297-.38 1.197-.2533.3673-.608.6777-1.064.931-.8613.456-1.862.8297-3.002 1.121-1.14.2913-2.1913.437-3.154.437-2.0267 0-3.7937-.3927-5.301-1.178-1.5073-.7853-2.6663-1.9063-3.477-3.363-.8107-1.4567-1.216-3.173-1.216-5.149 0-1.9.3927-3.5847 1.178-5.054.7853-1.4693 1.8747-2.6157 3.268-3.439 1.3933-.8233 2.9767-1.235 4.75-1.235 1.6973 0 3.1857.3737 4.465 1.121 1.2793.7473 2.2737 1.8113 2.983 3.192.7093 1.3807 1.064 2.9957 1.064 4.845 0 .5573-.133.9817-.399 1.273-.266.2913-.6397.437-1.121.437h-10.64c.1773 1.4947.6333 2.5777 1.368 3.249.7347.6713 1.786 1.007 3.154 1.007.7347 0 1.3933-.0887 1.976-.266s1.2287-.418 1.938-.722c.3547-.152.6967-.285 1.026-.399.3293-.114.6207-.171.874-.171.5067 0 .9183.2027 1.235.608zm-10.393-9.177c-.6587.6967-1.0513 1.7037-1.178 3.021h7.334c-.076-1.3427-.4117-2.356-1.007-3.04-.5953-.684-1.4377-1.026-2.527-1.026-1.0893 0-1.9633.3483-2.622 1.045z" fill="#6A513A"/><path d="M293.757 45.121c1.254.8233 2.2293 1.976 2.926 3.458.6967 1.482 1.045 3.1857 1.045 5.111 0 1.9253-.3483 3.6163-1.045 5.073-.6967 1.4567-1.6657 2.5777-2.907 3.363-1.2413.7853-2.6727 1.178-4.294 1.178-1.2667 0-2.413-.2597-3.439-.779-1.026-.5193-1.8177-1.2477-2.375-2.185v7.182c0 .76-.2533 1.368-.76 1.824-.5067.456-1.178.684-2.014.684-.8867 0-1.6023-.2407-2.147-.722-.5447-.4813-.817-1.1147-.817-1.9V46.66c0-.8107.2597-1.463.779-1.957.5193-.494 1.2097-.741 2.071-.741.8613 0 1.5453.247 2.052.741.5067.494.76 1.1463.76 1.957v.304c.5573-.9627 1.3553-1.7163 2.394-2.261 1.0387-.5447 2.204-.817 3.496-.817 1.596 0 3.021.4117 4.275 1.235zm-2.831 12.464c.7347-.8993 1.102-2.1977 1.102-3.895 0-1.7227-.3673-3.059-1.102-4.009-.7347-.95-1.7733-1.425-3.116-1.425s-2.3813.4623-3.116 1.387c-.7347.9247-1.102 2.2483-1.102 3.971 0 1.6973.3673 3.0083 1.102 3.933.7347.9247 1.7733 1.387 3.116 1.387s2.3813-.4497 3.116-1.349zM304.986 62.107c-1.4947-.798-2.6473-1.9253-3.458-3.382-.8107-1.4567-1.216-3.173-1.216-5.149s.4053-3.6923 1.216-5.149 1.9633-2.5777 3.458-3.363c1.4947-.7853 3.23-1.178 5.206-1.178 1.976 0 3.7113.3927 5.206 1.178 1.4947.7853 2.6473 1.9063 3.458 3.363.8107 1.4567 1.216 3.173 1.216 5.149s-.4053 3.6923-1.216 5.149-1.9633 2.584-3.458 3.382c-1.4947.798-3.23 1.197-5.206 1.197-1.976 0-3.7113-.399-5.206-1.197zm9.386-8.531c0-1.7987-.361-3.1413-1.083-4.028-.722-.8867-1.7543-1.33-3.097-1.33-2.7867 0-4.18 1.786-4.18 5.358 0 3.572 1.3933 5.358 4.18 5.358 2.7867 0 4.18-1.786 4.18-5.358zM341.637 36.742c.5447.4813.817 1.1147.817 1.9V60.53c0 .8107-.2597 1.463-.779 1.957-.5193.494-1.2097.741-2.071.741-.8613 0-1.5517-.247-2.071-.741-.5193-.494-.779-1.1463-.779-1.957v-.304c-.5573.9627-1.349 1.7163-2.375 2.261-1.026.5447-2.185.817-3.477.817-1.596 0-3.021-.4117-4.275-1.235-1.254-.8233-2.2293-1.976-2.926-3.458-.6967-1.482-1.045-3.1857-1.045-5.111 0-1.9253.3483-3.6163 1.045-5.073.6967-1.4567 1.6657-2.5777 2.907-3.363 1.2413-.7853 2.6727-1.178 4.294-1.178 1.2667 0 2.413.266 3.439.798 1.026.532 1.8177 1.2793 2.375 2.242v-8.398c0-.76.2533-1.368.76-1.824.5067-.456 1.178-.684 2.014-.684.8867 0 1.6023.2407 2.147.722zm-5.966 20.805c.722-.9247 1.083-2.2483 1.083-3.971 0-1.7227-.361-3.04-1.083-3.952-.722-.912-1.7543-1.368-3.097-1.368s-2.3813.4497-3.116 1.349c-.7347.8993-1.102 2.1977-1.102 3.895 0 1.7227.3673 3.059 1.102 4.009.7347.95 1.7733 1.425 3.116 1.425s2.375-.4623 3.097-1.387zM350.624 62.107c-1.4947-.798-2.6473-1.9253-3.458-3.382-.8107-1.4567-1.216-3.173-1.216-5.149s.4053-3.6923 1.216-5.149 1.9633-2.5777 3.458-3.363c1.4947-.7853 3.23-1.178 5.206-1.178 1.976 0 3.7113.3927 5.206 1.178 1.4947.7853 2.6473 1.9063 3.458 3.363.8107 1.4567 1.216 3.173 1.216 5.149s-.4053 3.6923-1.216 5.149-1.9633 2.584-3.458 3.382c-1.4947.798-3.23 1.197-5.206 1.197-1.976 0-3.7113-.399-5.206-1.197zm9.386-8.531c0-1.7987-.361-3.1413-1.083-4.028-.722-.8867-1.7543-1.33-3.097-1.33-2.7867 0-4.18 1.786-4.18 5.358 0 3.572 1.3933 5.358 4.18 5.358 2.7867 0 4.18-1.786 4.18-5.358zM370.023 62.544c-.5447-.456-.817-1.1273-.817-2.014V38.718c0-.8867.2723-1.558.817-2.014.5447-.456 1.235-.684 2.071-.684.8107 0 1.4883.228 2.033.684.5447.456.817 1.1273.817 2.014V60.53c0 .8867-.2723 1.558-.817 2.014-.5447.456-1.2223.684-2.033.684-.836 0-1.5263-.228-2.071-.684zM383.114 62.107c-1.4947-.798-2.6473-1.9253-3.458-3.382-.8107-1.4567-1.216-3.173-1.216-5.149s.4053-3.6923 1.216-5.149 1.9633-2.5777 3.458-3.363c1.4947-.7853 3.23-1.178 5.206-1.178 1.976 0 3.7113.3927 5.206 1.178 1.4947.7853 2.6473 1.9063 3.458 3.363.8107 1.4567 1.216 3.173 1.216 5.149s-.4053 3.6923-1.216 5.149-1.9633 2.584-3.458 3.382c-1.4947.798-3.23 1.197-5.206 1.197-1.976 0-3.7113-.399-5.206-1.197zm9.386-8.531c0-1.7987-.361-3.1413-1.083-4.028-.722-.8867-1.7543-1.33-3.097-1.33-2.7867 0-4.18 1.786-4.18 5.358 0 3.572 1.3933 5.358 4.18 5.358 2.7867 0 4.18-1.786 4.18-5.358zM419.955 44.703c.5193.494.779 1.1463.779 1.957v14.326c0 3.0147-.874 5.2947-2.622 6.84-1.748 1.5453-4.3067 2.318-7.676 2.318-2.8373 0-5.168-.5067-6.992-1.52-.456-.2533-.8107-.5637-1.064-.931-.2533-.3673-.38-.779-.38-1.235 0-.6333.152-1.1527.456-1.558.304-.4053.7093-.608 1.216-.608.2787 0 .608.057.988.171.38.114.7727.247 1.178.399.8107.304 1.558.5447 2.242.722.684.1773 1.4187.266 2.204.266 1.6213 0 2.8247-.3673 3.61-1.102.7853-.7347 1.178-1.8493 1.178-3.344v-2.052c-.532.9627-1.33 1.7227-2.394 2.28-1.064.5573-2.2547.836-3.572.836-1.6213 0-3.059-.38-4.313-1.14-1.254-.76-2.2357-1.843-2.945-3.249-.7093-1.406-1.064-3.0337-1.064-4.883s.3547-3.477 1.064-4.883c.7093-1.406 1.691-2.4953 2.945-3.268 1.254-.7727 2.6917-1.159 4.313-1.159 1.292 0 2.4637.2723 3.515.817 1.0513.5447 1.8557 1.2983 2.413 2.261v-.38c0-.8107.2597-1.4503.779-1.919.5193-.4687 1.2097-.703 2.071-.703.8613 0 1.5517.247 2.071.741zm-6.042 12.103c.7473-.8613 1.121-2.0647 1.121-3.61 0-1.5453-.3737-2.755-1.121-3.629-.7473-.874-1.7923-1.311-3.135-1.311-1.3427 0-2.394.437-3.154 1.311-.76.874-1.14 2.0837-1.14 3.629 0 1.5453.38 2.7487 1.14 3.61.76.8613 1.8113 1.292 3.154 1.292s2.3877-.4307 3.135-1.292zM425.959 62.544c-.5447-.456-.817-1.1273-.817-2.014V46.66c0-.8867.2787-1.558.836-2.014.5573-.456 1.2413-.684 2.052-.684s1.4883.228 2.033.684c.5447.456.817 1.1273.817 2.014v13.87c0 .8867-.2723 1.558-.817 2.014-.5447.456-1.2223.684-2.033.684-.836 0-1.5263-.228-2.071-.684zM428.144 42.1c-.4053 0-.7473-.1393-1.026-.418-.2787-.2787-.418-.608-.418-.988 0-.3293.114-.6587.342-.988l3.268-4.37c.6333-.8613 1.3933-1.292 2.28-1.292.6333 0 1.1907.228 1.672.684.4813.456.722.988.722 1.596 0 .76-.4053 1.444-1.216 2.052l-4.636 3.382c-.304.228-.6333.342-.988.342zM449.766 45.881c1.3173 1.33 1.976 3.363 1.976 6.099v8.588c0 .836-.2407 1.4883-.722 1.957-.4813.4687-1.1527.703-2.014.703-.8107 0-1.463-.247-1.957-.741s-.741-1.1337-.741-1.919v-.266c-.38.9373-1.0133 1.672-1.9 2.204-.8867.532-1.9253.798-3.116.798-1.2667 0-2.413-.2533-3.439-.76-1.026-.5067-1.8367-1.216-2.432-2.128-.5953-.912-.893-1.9253-.893-3.04 0-1.368.3483-2.4447 1.045-3.23.6967-.7853 1.8177-1.3553 3.363-1.71s3.6607-.532 6.346-.532h.988v-.684c0-1.064-.2343-1.8367-.703-2.318-.4687-.4813-1.2477-.722-2.337-.722-1.0893 0-2.66.38-4.712 1.14-.5827.2787-1.0767.418-1.482.418-.5573 0-1.0007-.1963-1.33-.589-.3293-.3927-.494-.9057-.494-1.539 0-.5067.114-.9247.342-1.254.228-.3293.5953-.6333 1.102-.912.8867-.4813 1.9697-.8613 3.249-1.14 1.2793-.2787 2.5397-.418 3.781-.418 2.736 0 4.7627.665 6.08 1.995zm-4.522 12.35c.684-.7473 1.026-1.7163 1.026-2.907v-.646h-.646c-2.052 0-3.4897.1647-4.313.494-.8233.3293-1.235.9247-1.235 1.786 0 .7093.2343 1.2857.703 1.729.4687.4433 1.0577.665 1.767.665 1.1147 0 2.014-.3737 2.698-1.121z" fill="#8EC750"/><path d="M164.157 93.937c-.102-.102-.153-.243-.153-.423V81.868c0-.156.057-.288.171-.396.114-.108.255-.162.423-.162h4.212c1.32 0 2.343.318 3.069.954.726.636 1.089 1.536 1.089 2.7 0 1.176-.366 2.085-1.098 2.727-.732.642-1.752.963-3.06.963h-3.69v4.86c0 .18-.051.321-.153.423-.102.102-.237.153-.405.153-.168 0-.303-.051-.405-.153zm4.581-6.237c2.076 0 3.114-.912 3.114-2.736 0-1.8-1.038-2.7-3.114-2.7h-3.618V87.7h3.618zm8.748 5.661c-.852-.522-1.506-1.272-1.962-2.25-.456-.978-.684-2.127-.684-3.447 0-1.332.228-2.487.684-3.465.456-.978 1.107-1.728 1.953-2.25.846-.522 1.851-.783 3.015-.783 1.164 0 2.172.261 3.024.783.852.522 1.506 1.269 1.962 2.241.456.972.684 2.124.684 3.456 0 1.332-.228 2.487-.684 3.465-.456.978-1.11 1.728-1.962 2.25-.852.522-1.86.783-3.024.783-1.152 0-2.154-.261-3.006-.783zm6.336-1.647c.792-.96 1.188-2.316 1.188-4.068 0-1.752-.393-3.105-1.179-4.059-.786-.954-1.899-1.431-3.339-1.431-1.428 0-2.535.48-3.321 1.44s-1.179 2.31-1.179 4.05c0 1.74.393 3.093 1.179 4.059.786.966 1.893 1.449 3.321 1.449 1.428 0 2.538-.48 3.33-1.44zm5.301 2.124c-.114-.108-.171-.24-.171-.396V81.868c0-.156.057-.288.171-.396.114-.108.255-.162.423-.162h3.492c2.004 0 3.555.546 4.653 1.638 1.098 1.092 1.647 2.658 1.647 4.698 0 2.04-.549 3.609-1.647 4.707-1.098 1.098-2.649 1.647-4.653 1.647h-3.492c-.168 0-.309-.054-.423-.162zm3.861-.81c3.456 0 5.184-1.794 5.184-5.382 0-3.576-1.728-5.364-5.184-5.364h-2.916v10.746h2.916zm11.286.333c-.852-.522-1.506-1.272-1.962-2.25-.456-.978-.684-2.127-.684-3.447 0-1.332.228-2.487.684-3.465.456-.978 1.107-1.728 1.953-2.25.846-.522 1.851-.783 3.015-.783 1.164 0 2.172.261 3.024.783.852.522 1.506 1.269 1.962 2.241.456.972.684 2.124.684 3.456 0 1.332-.228 2.487-.684 3.465-.456.978-1.11 1.728-1.962 2.25-.852.522-1.86.783-3.024.783-1.152 0-2.154-.261-3.006-.783zm6.336-1.647c.792-.96 1.188-2.316 1.188-4.068 0-1.752-.393-3.105-1.179-4.059-.786-.954-1.899-1.431-3.339-1.431-1.428 0-2.535.48-3.321 1.44s-1.179 2.31-1.179 4.05c0 1.74.393 3.093 1.179 4.059.786.966 1.893 1.449 3.321 1.449 1.428 0 2.538-.48 3.33-1.44zm5.301 2.142c-.114-.096-.171-.216-.171-.36v-11.7c0-.168.051-.306.153-.414.102-.108.237-.162.405-.162.18 0 .318.051.414.153.096.102.144.243.144.423v11.232h6.156c.156 0 .279.042.369.126.09.084.135.204.135.36s-.045.276-.135.36c-.09.084-.213.126-.369.126h-6.696c-.156 0-.291-.048-.405-.144zm10.953-.495c-.852-.522-1.506-1.272-1.962-2.25-.456-.978-.684-2.127-.684-3.447 0-1.332.228-2.487.684-3.465.456-.978 1.107-1.728 1.953-2.25.846-.522 1.851-.783 3.015-.783 1.164 0 2.172.261 3.024.783.852.522 1.506 1.269 1.962 2.241.456.972.684 2.124.684 3.456 0 1.332-.228 2.487-.684 3.465-.456.978-1.11 1.728-1.962 2.25-.852.522-1.86.783-3.024.783-1.152 0-2.154-.261-3.006-.783zm6.336-1.647c.792-.96 1.188-2.316 1.188-4.068 0-1.752-.393-3.105-1.179-4.059-.786-.954-1.899-1.431-3.339-1.431-1.428 0-2.535.48-3.321 1.44s-1.179 2.31-1.179 4.05c0 1.74.393 3.093 1.179 4.059.786.966 1.893 1.449 3.321 1.449 1.428 0 2.538-.48 3.33-1.44zm14.805-4.077c.09.09.135.207.135.351v4.77c0 .312-.138.528-.414.648-.492.228-1.089.408-1.791.54-.702.132-1.413.198-2.133.198-1.236 0-2.301-.255-3.195-.765-.894-.51-1.578-1.254-2.052-2.232-.474-.978-.711-2.145-.711-3.501 0-1.332.234-2.484.702-3.456.468-.972 1.14-1.719 2.016-2.241.876-.522 1.914-.783 3.114-.783.84 0 1.626.135 2.358.405.732.27 1.332.657 1.8 1.161.156.156.234.33.234.522 0 .132-.036.246-.108.342-.072.096-.162.144-.27.144-.096 0-.228-.06-.396-.18-.636-.528-1.224-.894-1.764-1.098-.54-.204-1.158-.306-1.854-.306-1.488 0-2.637.477-3.447 1.431-.81.954-1.215 2.307-1.215 4.059 0 1.788.408 3.156 1.224 4.104.816.948 2.004 1.422 3.564 1.422.6 0 1.191-.051 1.773-.153.582-.102 1.101-.249 1.557-.441v-4.14h-2.916c-.168 0-.297-.042-.387-.126-.09-.084-.135-.198-.135-.342 0-.144.045-.258.135-.342.09-.084.219-.126.387-.126h3.438c.144 0 .261.045.351.135zm3.42 6.291c-.102-.108-.153-.246-.153-.414V81.796c0-.168.051-.306.153-.414.102-.108.237-.162.405-.162.168 0 .303.054.405.162.102.108.153.246.153.414v11.718c0 .168-.051.306-.153.414-.102.108-.237.162-.405.162-.168 0-.303-.054-.405-.162zm.405-13.608c-.084 0-.159-.03-.225-.09s-.099-.132-.099-.216c0-.084.036-.162.108-.234l1.854-2.07c.168-.18.348-.27.54-.27.156 0 .288.051.396.153.108.102.162.231.162.387 0 .192-.114.378-.342.558l-2.178 1.71c-.06.048-.132.072-.216.072zm14.58 13.302c0 .132-.054.243-.162.333-.108.09-.234.135-.378.135-.096 0-.189-.03-.279-.09-.09-.06-.159-.144-.207-.252l-1.368-3.132h-6.984l-1.386 3.132c-.108.228-.276.342-.504.342-.144 0-.267-.045-.369-.135-.102-.09-.153-.207-.153-.351 0-.084.012-.15.036-.198l5.256-11.808c.108-.264.306-.396.594-.396.132 0 .255.036.369.108.114.072.195.168.243.288l5.238 11.808c.036.072.054.144.054.216zm-8.964-3.978h6.138l-3.06-6.966-3.078 6.966zm17.919 3.717c-.87-.522-1.536-1.272-1.998-2.25-.462-.978-.693-2.133-.693-3.465 0-1.332.231-2.484.693-3.456.462-.972 1.128-1.719 1.998-2.241.87-.522 1.893-.783 3.069-.783.804 0 1.569.135 2.295.405s1.341.657 1.845 1.161c.168.156.252.33.252.522 0 .132-.039.246-.117.342-.078.096-.165.144-.261.144-.12 0-.258-.06-.414-.18-.648-.528-1.236-.894-1.764-1.098-.528-.204-1.146-.306-1.854-.306-1.452 0-2.577.48-3.375 1.44s-1.197 2.31-1.197 4.05c0 1.752.399 3.108 1.197 4.068.798.96 1.923 1.44 3.375 1.44.708 0 1.326-.102 1.854-.306.528-.204 1.116-.57 1.764-1.098.18-.12.318-.18.414-.18.096 0 .183.048.261.144.078.096.117.21.117.342 0 .192-.084.366-.252.522-.504.504-1.119.891-1.845 1.161s-1.491.405-2.295.405c-1.176 0-2.199-.261-3.069-.783zm10.152.495c-.114-.096-.171-.216-.171-.36v-11.7c0-.168.051-.306.153-.414.102-.108.237-.162.405-.162.18 0 .318.051.414.153.096.102.144.243.144.423v11.232h6.156c.156 0 .279.042.369.126.09.084.135.204.135.36s-.045.276-.135.36c-.09.084-.213.126-.369.126h-6.696c-.156 0-.291-.048-.405-.144zm9.576.072c-.102-.108-.153-.246-.153-.414V81.796c0-.168.051-.306.153-.414.102-.108.237-.162.405-.162.168 0 .303.054.405.162.102.108.153.246.153.414v11.718c0 .168-.051.306-.153.414-.102.108-.237.162-.405.162-.168 0-.303-.054-.405-.162zm.405-13.608c-.084 0-.159-.03-.225-.09s-.099-.132-.099-.216c0-.084.036-.162.108-.234l1.854-2.07c.168-.18.348-.27.54-.27.156 0 .288.051.396.153.108.102.162.231.162.387 0 .192-.114.378-.342.558l-2.178 1.71c-.06.048-.132.072-.216.072zm13.653 1.053c.09.102.135.243.135.423v11.718c0 .168-.048.306-.144.414-.096.108-.228.162-.396.162-.18 0-.342-.09-.486-.27l-7.884-10.638v10.332c0 .168-.048.306-.144.414-.096.108-.222.162-.378.162-.18 0-.312-.051-.396-.153-.084-.102-.126-.243-.126-.423V81.796c0-.168.051-.306.153-.414.102-.108.243-.162.423-.162.192 0 .348.09.468.27l7.866 10.62V81.796c0-.168.048-.306.144-.414.096-.108.222-.162.378-.162.168 0 .297.051.387.153zm3.564 12.555c-.102-.108-.153-.246-.153-.414V81.796c0-.168.051-.306.153-.414.102-.108.237-.162.405-.162.168 0 .303.054.405.162.102.108.153.246.153.414v11.718c0 .168-.051.306-.153.414-.102.108-.237.162-.405.162-.168 0-.303-.054-.405-.162zm6.444-.567c-.87-.522-1.536-1.272-1.998-2.25-.462-.978-.693-2.133-.693-3.465 0-1.332.231-2.484.693-3.456.462-.972 1.128-1.719 1.998-2.241.87-.522 1.893-.783 3.069-.783.804 0 1.569.135 2.295.405s1.341.657 1.845 1.161c.168.156.252.33.252.522 0 .132-.039.246-.117.342-.078.096-.165.144-.261.144-.12 0-.258-.06-.414-.18-.648-.528-1.236-.894-1.764-1.098-.528-.204-1.146-.306-1.854-.306-1.452 0-2.577.48-3.375 1.44s-1.197 2.31-1.197 4.05c0 1.752.399 3.108 1.197 4.068.798.96 1.923 1.44 3.375 1.44.708 0 1.326-.102 1.854-.306.528-.204 1.116-.57 1.764-1.098.18-.12.318-.18.414-.18.096 0 .183.048.261.144.078.096.117.21.117.342 0 .192-.084.366-.252.522-.504.504-1.119.891-1.845 1.161s-1.491.405-2.295.405c-1.176 0-2.199-.261-3.069-.783zm20.385.261c0 .132-.054.243-.162.333-.108.09-.234.135-.378.135-.096 0-.189-.03-.279-.09-.09-.06-.159-.144-.207-.252l-1.368-3.132h-6.984l-1.386 3.132c-.108.228-.276.342-.504.342-.144 0-.267-.045-.369-.135-.102-.09-.153-.207-.153-.351 0-.084.012-.15.036-.198l5.256-11.808c.108-.264.306-.396.594-.396.132 0 .255.036.369.108.114.072.195.168.243.288l5.238 11.808c.036.072.054.144.054.216zm-8.964-3.978h6.138l-3.06-6.966-3.078 6.966zm26.46 3.978c0 .132-.054.243-.162.333-.108.09-.234.135-.378.135-.096 0-.189-.03-.279-.09-.09-.06-.159-.144-.207-.252l-1.368-3.132h-6.984l-1.386 3.132c-.108.228-.276.342-.504.342-.144 0-.267-.045-.369-.135-.102-.09-.153-.207-.153-.351 0-.084.012-.15.036-.198l5.256-11.808c.108-.264.306-.396.594-.396.132 0 .255.036.369.108.114.072.195.168.243.288l5.238 11.808c.036.072.054.144.054.216zm-8.964-3.978h6.138l-3.06-6.966-3.078 6.966zm15.885 4.194c-.114-.108-.171-.24-.171-.396V81.868c0-.156.057-.288.171-.396.114-.108.255-.162.423-.162h3.492c2.004 0 3.555.546 4.653 1.638 1.098 1.092 1.647 2.658 1.647 4.698 0 2.04-.549 3.609-1.647 4.707-1.098 1.098-2.649 1.647-4.653 1.647h-3.492c-.168 0-.309-.054-.423-.162zm3.861-.81c3.456 0 5.184-1.794 5.184-5.382 0-3.576-1.728-5.364-5.184-5.364h-2.916v10.746h2.916zm11.286.333c-.852-.522-1.506-1.272-1.962-2.25-.456-.978-.684-2.127-.684-3.447 0-1.332.228-2.487.684-3.465.456-.978 1.107-1.728 1.953-2.25.846-.522 1.851-.783 3.015-.783 1.164 0 2.172.261 3.024.783.852.522 1.506 1.269 1.962 2.241.456.972.684 2.124.684 3.456 0 1.332-.228 2.487-.684 3.465-.456.978-1.11 1.728-1.962 2.25-.852.522-1.86.783-3.024.783-1.152 0-2.154-.261-3.006-.783zm6.336-1.647c.792-.96 1.188-2.316 1.188-4.068 0-1.752-.393-3.105-1.179-4.059-.786-.954-1.899-1.431-3.339-1.431-1.428 0-2.535.48-3.321 1.44s-1.179 2.31-1.179 4.05c0 1.74.393 3.093 1.179 4.059.786.966 1.893 1.449 3.321 1.449 1.428 0 2.538-.48 3.33-1.44zm16.821-10.332c.102.108.153.246.153.414v11.718c0 .168-.048.306-.144.414-.096.108-.228.162-.396.162s-.294-.051-.378-.153c-.084-.102-.126-.243-.126-.423v-9.99l-4.266 8.244c-.144.276-.342.414-.594.414-.252 0-.45-.138-.594-.414l-4.302-8.172v9.918c0 .18-.042.321-.126.423-.084.102-.21.153-.378.153-.18 0-.315-.051-.405-.153-.09-.102-.135-.243-.135-.423V81.796c0-.168.051-.306.153-.414.102-.108.243-.162.423-.162.216 0 .396.138.54.414l4.842 9.288 4.77-9.288c.144-.276.324-.414.54-.414.18 0 .321.054.423.162zm3.582 12.546c-.102-.108-.153-.246-.153-.414V81.796c0-.168.051-.306.153-.414.102-.108.237-.162.405-.162.168 0 .303.054.405.162.102.108.153.246.153.414v11.718c0 .168-.051.306-.153.414-.102.108-.237.162-.405.162-.168 0-.303-.054-.405-.162zm6.444-.567c-.87-.522-1.536-1.272-1.998-2.25-.462-.978-.693-2.133-.693-3.465 0-1.332.231-2.484.693-3.456.462-.972 1.128-1.719 1.998-2.241.87-.522 1.893-.783 3.069-.783.804 0 1.569.135 2.295.405s1.341.657 1.845 1.161c.168.156.252.33.252.522 0 .132-.039.246-.117.342-.078.096-.165.144-.261.144-.12 0-.258-.06-.414-.18-.648-.528-1.236-.894-1.764-1.098-.528-.204-1.146-.306-1.854-.306-1.452 0-2.577.48-3.375 1.44s-1.197 2.31-1.197 4.05c0 1.752.399 3.108 1.197 4.068.798.96 1.923 1.44 3.375 1.44.708 0 1.326-.102 1.854-.306.528-.204 1.116-.57 1.764-1.098.18-.12.318-.18.414-.18.096 0 .183.048.261.144.078.096.117.21.117.342 0 .192-.084.366-.252.522-.504.504-1.119.891-1.845 1.161s-1.491.405-2.295.405c-1.176 0-2.199-.261-3.069-.783zm10.134.567c-.102-.108-.153-.246-.153-.414V81.796c0-.168.051-.306.153-.414.102-.108.237-.162.405-.162.168 0 .303.054.405.162.102.108.153.246.153.414v11.718c0 .168-.051.306-.153.414-.102.108-.237.162-.405.162-.168 0-.303-.054-.405-.162zm4.41-.072c-.114-.096-.171-.216-.171-.36v-11.7c0-.168.051-.306.153-.414.102-.108.237-.162.405-.162.18 0 .318.051.414.153.096.102.144.243.144.423v11.232h6.156c.156 0 .279.042.369.126.09.084.135.204.135.36s-.045.276-.135.36c-.09.084-.213.126-.369.126h-6.696c-.156 0-.291-.048-.405-.144zm9.576.072c-.102-.108-.153-.246-.153-.414V81.796c0-.168.051-.306.153-.414.102-.108.237-.162.405-.162.168 0 .303.054.405.162.102.108.153.246.153.414v11.718c0 .168-.051.306-.153.414-.102.108-.237.162-.405.162-.168 0-.303-.054-.405-.162zm6.399-.567c-.852-.522-1.506-1.272-1.962-2.25-.456-.978-.684-2.127-.684-3.447 0-1.332.228-2.487.684-3.465.456-.978 1.107-1.728 1.953-2.25.846-.522 1.851-.783 3.015-.783 1.164 0 2.172.261 3.024.783.852.522 1.506 1.269 1.962 2.241.456.972.684 2.124.684 3.456 0 1.332-.228 2.487-.684 3.465-.456.978-1.11 1.728-1.962 2.25-.852.522-1.86.783-3.024.783-1.152 0-2.154-.261-3.006-.783zm6.336-1.647c.792-.96 1.188-2.316 1.188-4.068 0-1.752-.393-3.105-1.179-4.059-.786-.954-1.899-1.431-3.339-1.431-1.428 0-2.535.48-3.321 1.44s-1.179 2.31-1.179 4.05c0 1.74.393 3.093 1.179 4.059.786.966 1.893 1.449 3.321 1.449 1.428 0 2.538-.48 3.33-1.44z" fill="#4A4A4A"/></g></svg>